<svg height="512" viewBox="0 0 64 64" width="512" xmlns="http://www.w3.org/2000/svg"><g id="Layer_25" data-name="Layer 25"><rect fill="#e2e7f6" height="60" rx="7" width="60" x="2" y="2"/><path d="m2 9v44h46a7 7 0 0 0 7-7v-44h-46a7 7 0 0 0 -7 7z" fill="#f2f2f2"/><path d="m8 24h48v32h-48z" fill="#78a0d4"/><path d="m56 56-20-17h-8l-20 17z" fill="#93bee5"/><path d="m47 18.75 9 5.25-24 18-24-18 9-5.25z" fill="#a5d1f2"/><path d="m47 30.75v-15.75l-7-7h-23v22.75l15 11.25z" fill="#e2e7f6"/><path d="m32 14a7.009 7.009 0 0 0 -7 7 8.009 8.009 0 0 0 8 8h4v-2h-4a6.006 6.006 0 0 1 -6-6 5 5 0 0 1 10 0v1a1 1 0 0 1 -2 0v-4h-2v.184a2.966 2.966 0 0 0 -1-.184 3 3 0 0 0 0 6 2.967 2.967 0 0 0 1.471-.4 2.994 2.994 0 0 0 5.529-1.6v-1a7.009 7.009 0 0 0 -7-7zm0 8a1 1 0 1 1 1-1 1 1 0 0 1 -1 1z" fill="#93bee5"/><path d="m40 8v7h7" fill="#c8cded"/></g></svg>